<svg xmlns="http://www.w3.org/2000/svg" viewBox="0 0 360 110" width="360" height="110" role="img" aria-label="Location YBMTL">
  <defs>
    <linearGradient id="lg" x1="0" y1="0" x2="1" y2="1">
      <stop offset="0" stop-color="#1d4ed8"/>
      <stop offset="1" stop-color="#0ea5e9"/>
    </linearGradient>
  </defs>
  <rect x="0" y="0" width="110" height="110" rx="22" fill="url(#lg)"/>
  <!-- silhouette de voiture en contour blanc -->
  <g fill="none" stroke="#ffffff" stroke-width="4.5" stroke-linejoin="round" stroke-linecap="round">
    <path d="M22 64 l8 -18 a8 8 0 0 1 7 -5 h36 a8 8 0 0 1 7 5 l8 18"/>
    <path d="M18 64 h74 a4 4 0 0 1 4 4 v9 a3 3 0 0 1 -3 3 h-7"/>
    <path d="M22 80 h-2 a3 3 0 0 1 -3 -3 v-9 a4 4 0 0 1 4 -4"/>
    <circle cx="34" cy="80" r="7" fill="#1d4ed8"/>
    <circle cx="78" cy="80" r="7" fill="#1d4ed8"/>
  </g>
  <!-- texte -->
  <text x="128" y="50" font-family="-apple-system, Segoe UI, Roboto, Arial, sans-serif" font-size="26" font-weight="800" fill="#1c2430" letter-spacing="0.5">LOCATION</text>
  <text x="128" y="82" font-family="-apple-system, Segoe UI, Roboto, Arial, sans-serif" font-size="26" font-weight="800" fill="#1d4ed8" letter-spacing="3">YBMTL</text>
</svg>
